<?xml version="1.0" encoding="UTF-8" standalone="no"?>
<!-- Created with Inkscape (http://www.inkscape.org/) -->

<svg
   xmlns:dc="http://purl.org/dc/elements/1.1/"
   xmlns:cc="http://creativecommons.org/ns#"
   xmlns:rdf="http://www.w3.org/1999/02/22-rdf-syntax-ns#"
   xmlns:svg="http://www.w3.org/2000/svg"
   xmlns="http://www.w3.org/2000/svg"
   xmlns:sodipodi="http://sodipodi.sourceforge.net/DTD/sodipodi-0.dtd"
   xmlns:inkscape="http://www.inkscape.org/namespaces/inkscape"
   width="800"
   height="365.24109"
   viewBox="0 0 211.66666 96.636707"
   version="1.1"
   id="svg8"
   inkscape:version="0.92.1 r15371"
   sodipodi:docname="inacap.svg">
  <title
     id="title7577">Logo Inacap</title>
  <defs
     id="defs2">
    <clipPath
       id="clipPath4589"
       clipPathUnits="userSpaceOnUse">
      <path
         inkscape:connector-curvature="0"
         id="path4587"
         d="M 0,0 H 425.197 V 623.622 H 0 Z" />
    </clipPath>
    <clipPath
       id="clipPath4617"
       clipPathUnits="userSpaceOnUse">
      <path
         inkscape:connector-curvature="0"
         id="path4615"
         d="M 0,0 H 425.197 V 623.622 H 0 Z" />
    </clipPath>
    <clipPath
       id="clipPath4641"
       clipPathUnits="userSpaceOnUse">
      <path
         inkscape:connector-curvature="0"
         id="path4639"
         d="M 0,0 H 425.197 V 623.622 H 0 Z" />
    </clipPath>
    <clipPath
       id="clipPath4655"
       clipPathUnits="userSpaceOnUse">
      <path
         inkscape:connector-curvature="0"
         id="path4653"
         d="M 0,0 H 425.197 V 623.622 H 0 Z" />
    </clipPath>
    <clipPath
       id="clipPath4679"
       clipPathUnits="userSpaceOnUse">
      <path
         inkscape:connector-curvature="0"
         id="path4677"
         d="M 0,0 H 425.197 V 623.622 H 0 Z" />
    </clipPath>
    <clipPath
       id="clipPath4697"
       clipPathUnits="userSpaceOnUse">
      <path
         inkscape:connector-curvature="0"
         id="path4695"
         d="M 0,0 H 425.197 V 623.622 H 0 Z" />
    </clipPath>
    <clipPath
       id="clipPath4719"
       clipPathUnits="userSpaceOnUse">
      <path
         inkscape:connector-curvature="0"
         id="path4717"
         d="M 0,0 H 425.197 V 623.622 H 0 Z" />
    </clipPath>
    <clipPath
       id="clipPath4741"
       clipPathUnits="userSpaceOnUse">
      <path
         inkscape:connector-curvature="0"
         id="path4739"
         d="M 0,0 H 425.197 V 623.622 H 0 Z" />
    </clipPath>
    <clipPath
       id="clipPath4757"
       clipPathUnits="userSpaceOnUse">
      <path
         inkscape:connector-curvature="0"
         id="path4755"
         d="M 0,0 H 425.197 V 623.622 H 0 Z" />
    </clipPath>
    <clipPath
       id="clipPath4789"
       clipPathUnits="userSpaceOnUse">
      <path
         inkscape:connector-curvature="0"
         id="path4787"
         d="M 0,0 H 425.197 V 623.622 H 0 Z" />
    </clipPath>
    <clipPath
       id="clipPath4803"
       clipPathUnits="userSpaceOnUse">
      <path
         inkscape:connector-curvature="0"
         id="path4801"
         d="M 0,0 H 425.197 V 623.622 H 0 Z" />
    </clipPath>
    <clipPath
       id="clipPath4827"
       clipPathUnits="userSpaceOnUse">
      <path
         inkscape:connector-curvature="0"
         id="path4825"
         d="M 0,0 H 425.197 V 623.622 H 0 Z" />
    </clipPath>
    <clipPath
       id="clipPath4853"
       clipPathUnits="userSpaceOnUse">
      <path
         inkscape:connector-curvature="0"
         id="path4851"
         d="M 0,0 H 425.197 V 623.622 H 0 Z" />
    </clipPath>
    <clipPath
       id="clipPath4871"
       clipPathUnits="userSpaceOnUse">
      <path
         inkscape:connector-curvature="0"
         id="path4869"
         d="M 0,0 H 425.197 V 623.622 H 0 Z" />
    </clipPath>
    <clipPath
       id="clipPath4887"
       clipPathUnits="userSpaceOnUse">
      <path
         inkscape:connector-curvature="0"
         id="path4885"
         d="M 0,0 H 425.197 V 623.622 H 0 Z" />
    </clipPath>
    <clipPath
       id="clipPath4907"
       clipPathUnits="userSpaceOnUse">
      <path
         inkscape:connector-curvature="0"
         id="path4905"
         d="M 0,0 H 425.197 V 623.622 H 0 Z" />
    </clipPath>
    <clipPath
       id="clipPath4923"
       clipPathUnits="userSpaceOnUse">
      <path
         inkscape:connector-curvature="0"
         id="path4921"
         d="M 0,0 H 425.197 V 623.622 H 0 Z" />
    </clipPath>
    <clipPath
       id="clipPath4939"
       clipPathUnits="userSpaceOnUse">
      <path
         inkscape:connector-curvature="0"
         id="path4937"
         d="M 0,0 H 425.197 V 623.622 H 0 Z" />
    </clipPath>
    <clipPath
       id="clipPath4957"
       clipPathUnits="userSpaceOnUse">
      <path
         inkscape:connector-curvature="0"
         id="path4955"
         d="M 0,0 H 425.197 V 623.622 H 0 Z" />
    </clipPath>
    <clipPath
       id="clipPath4973"
       clipPathUnits="userSpaceOnUse">
      <path
         inkscape:connector-curvature="0"
         id="path4971"
         d="M 0,0 H 425.197 V 623.622 H 0 Z" />
    </clipPath>
    <clipPath
       id="clipPath4989"
       clipPathUnits="userSpaceOnUse">
      <path
         inkscape:connector-curvature="0"
         id="path4987"
         d="M 0,0 H 425.197 V 623.622 H 0 Z" />
    </clipPath>
  </defs>
  <sodipodi:namedview
     id="base"
     pagecolor="#ffffff"
     bordercolor="#666666"
     borderopacity="1.0"
     inkscape:pageopacity="0.0"
     inkscape:pageshadow="2"
     inkscape:zoom="0.15909902"
     inkscape:cx="-141.04313"
     inkscape:cy="423.75074"
     inkscape:document-units="px"
     inkscape:current-layer="layer1"
     showgrid="false"
     units="px"
     inkscape:showpageshadow="false"
     inkscape:window-width="1366"
     inkscape:window-height="705"
     inkscape:window-x="-8"
     inkscape:window-y="-8"
     inkscape:window-maximized="1"
     inkscape:snap-global="false"
     fit-margin-top="25"
     fit-margin-right="25"
     fit-margin-bottom="25"
     fit-margin-left="25" />
  <metadata
     id="metadata5">
    <rdf:RDF>
      <cc:Work
         rdf:about="">
        <dc:format>image/svg+xml</dc:format>
        <dc:type
           rdf:resource="http://purl.org/dc/dcmitype/StillImage" />
        <dc:title>Logo Inacap</dc:title>
        <dc:subject>
          <rdf:Bag>
            <rdf:li>Inacap</rdf:li>
            <rdf:li>Universidad</rdf:li>
            <rdf:li>Instituto</rdf:li>
            <rdf:li>CFT</rdf:li>
            <rdf:li>Chile</rdf:li>
          </rdf:Bag>
        </dc:subject>
      </cc:Work>
    </rdf:RDF>
  </metadata>
  <g
     inkscape:label="Capa 1"
     inkscape:groupmode="layer"
     id="layer1"
     transform="translate(-51.749019,-78.809246)">
    <g
       id="g7575"
       transform="matrix(1.9522227,0,0,1.9522227,-55.575146,-160.76506)">
      <path
         inkscape:connector-curvature="0"
         id="rect7455"
         d="m 70.485046,131.46549 h 7.543268 v 16.21368 h -7.543268 z"
         style="opacity:1;fill:#ffffff;fill-opacity:1;fill-rule:evenodd;stroke:none;stroke-width:1.81820464;stroke-linecap:round;stroke-linejoin:round;stroke-miterlimit:4;stroke-dasharray:none;stroke-dashoffset:0;stroke-opacity:1;paint-order:markers fill stroke" />
      <g
         style="fill:#ed1c24;fill-opacity:1"
         transform="matrix(1.2444306,0,0,-1.2444306,58.363602,126.10697)"
         id="g4535">
        <path
           inkscape:connector-curvature="0"
           id="path4537"
           style="fill:#ed1c24;fill-opacity:1;fill-rule:nonzero;stroke:none"
           d="M 0,0 H 17.335 V -17.335 H 14.422 V -6.22 H 11.544 V -17.335 H 0 Z" />
      </g>
      <g
         transform="translate(0.03253645)"
         style="fill:#231f20;fill-opacity:1"
         id="g7330">
        <g
           style="fill:#231f20;fill-opacity:1"
           id="g5944"
           transform="matrix(3.6290978,0,0,3.6290978,-196.52249,-529.77797)">
          <g
             style="fill:#231f20;fill-opacity:1"
             transform="matrix(0.35277777,0,0,-0.35277777,70.575245,191.02428)"
             id="g4709" />
          <g
             style="fill:#231f20;fill-opacity:1"
             transform="matrix(0.35277777,0,0,-0.35277777,-21.952615,200.08577)"
             id="g4713">
            <g
               style="fill:#231f20;fill-opacity:1"
               clip-path="url(#clipPath4719)"
               id="g4715">
              <g
                 style="fill:#231f20;fill-opacity:1"
                 transform="translate(267.0807,27.6624)"
                 id="g4721" />
            </g>
          </g>
          <g
             style="fill:#231f20;fill-opacity:1"
             transform="matrix(0.35277777,0,0,-0.35277777,72.691205,191.02428)"
             id="g4725" />
          <g
             style="fill:#231f20;fill-opacity:1"
             transform="matrix(0.35277777,0,0,-0.35277777,73.840945,191.02428)"
             id="g4731" />
          <g
             style="fill:#231f20;fill-opacity:1"
             transform="matrix(0.35277777,0,0,-0.35277777,-21.952615,200.08577)"
             id="g4735">
            <g
               style="fill:#231f20;fill-opacity:1"
               clip-path="url(#clipPath4741)"
               id="g4737">
              <g
                 style="fill:#231f20;fill-opacity:1"
                 transform="translate(275.3823,28.4795)"
                 id="g4743" />
            </g>
          </g>
          <g
             style="fill:#231f20;fill-opacity:1"
             transform="matrix(0.35277777,0,0,-0.35277777,75.629875,191.02428)"
             id="g4747" />
          <g
             style="fill:#231f20;fill-opacity:1"
             transform="matrix(0.35277777,0,0,-0.35277777,-21.952615,200.08577)"
             id="g4751">
            <g
               style="fill:#231f20;fill-opacity:1"
               clip-path="url(#clipPath4757)"
               id="g4753">
              <g
                 style="fill:#231f20;fill-opacity:1"
                 transform="translate(278.4396,27.0829)"
                 id="g4759" />
              <g
                 style="fill:#231f20;fill-opacity:1"
                 transform="translate(282.6565,28.1668)"
                 id="g4763" />
              <g
                 style="fill:#231f20;fill-opacity:1"
                 transform="translate(284.8197,25.6861)"
                 id="g4767" />
              <g
                 style="fill:#231f20;fill-opacity:1"
                 transform="translate(287.716,27.0829)"
                 id="g4771" />
            </g>
          </g>
          <g
             style="fill:#231f20;fill-opacity:1"
             transform="matrix(0.35277777,0,0,-0.35277777,80.520015,191.02428)"
             id="g4775" />
          <g
             style="fill:#231f20;fill-opacity:1"
             transform="matrix(0.35277777,0,0,-0.35277777,81.312285,191.02428)"
             id="g4779" />
          <g
             style="fill:#231f20;fill-opacity:1"
             transform="matrix(0.35277777,0,0,-0.35277777,-21.952615,200.08577)"
             id="g4783">
            <g
               style="fill:#231f20;fill-opacity:1"
               clip-path="url(#clipPath4789)"
               id="g4785">
              <g
                 style="fill:#231f20;fill-opacity:1"
                 transform="translate(297.0778,27.6624)"
                 id="g4791" />
            </g>
          </g>
          <g
             style="fill:#231f20;fill-opacity:1"
             transform="matrix(0.35277777,0,0,-0.35277777,-21.952615,200.08577)"
             id="g4797">
            <g
               style="fill:#231f20;fill-opacity:1"
               clip-path="url(#clipPath4803)"
               id="g4799">
              <g
                 style="fill:#231f20;fill-opacity:1"
                 transform="translate(298.8748,27.0829)"
                 id="g4805" />
            </g>
          </g>
          <g
             style="fill:#231f20;fill-opacity:1"
             transform="matrix(0.35277777,0,0,-0.35277777,84.455145,191.02428)"
             id="g4809" />
          <g
             style="fill:#231f20;fill-opacity:1"
             transform="matrix(0.35277777,0,0,-0.35277777,85.790095,190.15751)"
             id="g4813" />
          <g
             style="fill:#231f20;fill-opacity:1"
             transform="matrix(0.35277777,0,0,-0.35277777,86.347445,191.02428)"
             id="g4817" />
        </g>
        <g
           style="fill:#231f20;fill-opacity:1"
           id="g5895"
           transform="matrix(3.6290978,0,0,3.6290978,-164.74079,-528.07342)">
          <g
             style="fill:#231f20;fill-opacity:1"
             transform="matrix(0.35277777,0,0,-0.35277777,-21.952615,200.08577)"
             id="g4821">
            <g
               style="fill:#231f20;fill-opacity:1"
               clip-path="url(#clipPath4827)"
               id="g4823">
              <g
                 style="fill:#231f20;fill-opacity:1"
                 transform="translate(238.6997,33.9173)"
                 id="g4829" />
            </g>
          </g>
          <g
             style="fill:#231f20;fill-opacity:1"
             transform="matrix(0.35277777,0,0,-0.35277777,62.462555,189.10073)"
             id="g4833" />
          <g
             style="fill:#231f20;fill-opacity:1"
             transform="matrix(0.35277777,0,0,-0.35277777,64.545215,188.1205)"
             id="g4839" />
          <g
             style="fill:#231f20;fill-opacity:1"
             transform="matrix(0.35277777,0,0,-0.35277777,64.649535,189.10073)"
             id="g4843" />
          <g
             style="fill:#231f20;fill-opacity:1"
             transform="matrix(0.35277777,0,0,-0.35277777,-21.952615,200.08577)"
             id="g4847">
            <g
               style="fill:#231f20;fill-opacity:1"
               clip-path="url(#clipPath4853)"
               id="g4849">
              <g
                 style="fill:#231f20;fill-opacity:1"
                 transform="translate(247.8641,31.1387)"
                 id="g4855" />
              <g
                 style="fill:#231f20;fill-opacity:1"
                 transform="translate(252.487,33.1043)"
                 id="g4859" />
            </g>
          </g>
          <g
             style="fill:#231f20;fill-opacity:1"
             transform="matrix(0.35277777,0,0,-0.35277777,-21.952615,200.08577)"
             id="g4865">
            <g
               style="fill:#231f20;fill-opacity:1"
               clip-path="url(#clipPath4871)"
               id="g4867">
              <g
                 style="fill:#231f20;fill-opacity:1"
                 transform="translate(254.4285,33.6058)"
                 id="g4873" />
            </g>
          </g>
          <g
             style="fill:#231f20;fill-opacity:1"
             transform="matrix(0.35277777,0,0,-0.35277777,68.975325,188.23858)"
             id="g4877" />
          <g
             style="fill:#231f20;fill-opacity:1"
             transform="matrix(0.35277777,0,0,-0.35277777,-21.952615,200.08577)"
             id="g4881">
            <g
               style="fill:#231f20;fill-opacity:1"
               clip-path="url(#clipPath4887)"
               id="g4883">
              <g
                 style="fill:#231f20;fill-opacity:1"
                 transform="translate(259.6901,33.6058)"
                 id="g4889" />
            </g>
          </g>
          <g
             style="fill:#231f20;fill-opacity:1"
             transform="matrix(0.35277777,0,0,-0.35277777,71.100465,189.10073)"
             id="g4893" />
          <g
             style="fill:#231f20;fill-opacity:1"
             transform="matrix(0.35277777,0,0,-0.35277777,71.665615,189.10073)"
             id="g4897" />
          <g
             style="fill:#231f20;fill-opacity:1"
             transform="matrix(0.35277777,0,0,-0.35277777,-21.952615,200.08577)"
             id="g4901">
            <g
               style="fill:#231f20;fill-opacity:1"
               clip-path="url(#clipPath4907)"
               id="g4903">
              <g
                 style="fill:#231f20;fill-opacity:1"
                 transform="translate(270.0759,33.0802)"
                 id="g4909" />
            </g>
          </g>
          <g
             style="fill:#231f20;fill-opacity:1"
             transform="matrix(0.35277777,0,0,-0.35277777,73.494485,189.10073)"
             id="g4913" />
          <g
             style="fill:#231f20;fill-opacity:1"
             transform="matrix(0.35277777,0,0,-0.35277777,-21.952615,200.08577)"
             id="g4917">
            <g
               style="fill:#231f20;fill-opacity:1"
               clip-path="url(#clipPath4923)"
               id="g4919">
              <g
                 style="fill:#231f20;fill-opacity:1"
                 transform="translate(273.5852,32.5285)"
                 id="g4925" />
            </g>
          </g>
          <g
             style="fill:#231f20;fill-opacity:1"
             transform="matrix(0.35277777,0,0,-0.35277777,75.529975,189.10073)"
             id="g4929" />
          <g
             style="fill:#231f20;fill-opacity:1"
             transform="matrix(0.35277777,0,0,-0.35277777,-21.952615,200.08577)"
             id="g4933">
            <g
               style="fill:#231f20;fill-opacity:1"
               clip-path="url(#clipPath4939)"
               id="g4935">
              <g
                 style="fill:#231f20;fill-opacity:1"
                 transform="translate(278.7074,32.5285)"
                 id="g4941" />
              <g
                 style="fill:#231f20;fill-opacity:1"
                 transform="translate(283.6254,31.1387)"
                 id="g4945" />
            </g>
          </g>
          <g
             style="fill:#231f20;fill-opacity:1"
             transform="matrix(0.35277777,0,0,-0.35277777,-21.952615,200.08577)"
             id="g4951">
            <g
               style="fill:#231f20;fill-opacity:1"
               clip-path="url(#clipPath4957)"
               id="g4953">
              <g
                 style="fill:#231f20;fill-opacity:1"
                 transform="translate(287.7348,33.0802)"
                 id="g4959" />
            </g>
          </g>
          <g
             style="fill:#231f20;fill-opacity:1"
             transform="matrix(0.35277777,0,0,-0.35277777,80.060205,188.23858)"
             id="g4963" />
          <g
             style="fill:#231f20;fill-opacity:1"
             transform="matrix(0.35277777,0,0,-0.35277777,-21.952615,200.08577)"
             id="g4967">
            <g
               style="fill:#231f20;fill-opacity:1"
               clip-path="url(#clipPath4973)"
               id="g4969">
              <g
                 style="fill:#231f20;fill-opacity:1"
                 transform="translate(292.1944,33.6058)"
                 id="g4975" />
            </g>
          </g>
          <g
             style="fill:#231f20;fill-opacity:1"
             transform="matrix(0.35277777,0,0,-0.35277777,81.963055,189.10073)"
             id="g4979" />
          <g
             style="fill:#231f20;fill-opacity:1"
             transform="matrix(0.35277777,0,0,-0.35277777,-21.952615,200.08577)"
             id="g4983">
            <g
               style="fill:#231f20;fill-opacity:1"
               clip-path="url(#clipPath4989)"
               id="g4985">
              <g
                 style="fill:#231f20;fill-opacity:1"
                 transform="translate(300.3465,33.0802)"
                 id="g4991" />
            </g>
          </g>
          <g
             style="fill:#231f20;fill-opacity:1"
             transform="matrix(0.35277777,0,0,-0.35277777,84.174265,189.10073)"
             id="g4995" />
          <g
             style="fill:#231f20;fill-opacity:1"
             transform="matrix(0.35277777,0,0,-0.35277777,85.521065,189.10073)"
             id="g5001" />
          <g
             style="fill:#231f20;fill-opacity:1"
             transform="matrix(0.35277777,0,0,-0.35277777,86.284615,189.10073)"
             id="g5005" />
          <g
             style="fill:#231f20;fill-opacity:1"
             transform="matrix(0.35277777,0,0,-0.35277777,76.664785,187.95695)"
             id="g5009" />
        </g>
        <g
           style="fill:#231f20;fill-opacity:1"
           id="g6008"
           transform="matrix(3.6290978,0,0,3.6290978,-175.52037,-531.0032)">
          <g
             style="fill:#231f20;fill-opacity:1"
             transform="matrix(0.35277777,0,0,-0.35277777,65.305379,192.13144)"
             id="g4567" />
          <g
             style="fill:#231f20;fill-opacity:1"
             transform="matrix(0.35277777,0,0,-0.35277777,65.477115,192.81615)"
             id="g4571" />
          <g
             style="fill:#231f20;fill-opacity:1"
             transform="matrix(0.35277777,0,0,-0.35277777,66.314675,192.81615)"
             id="g4575" />
          <g
             style="fill:#231f20;fill-opacity:1"
             transform="matrix(0.35277777,0,0,-0.35277777,67.529645,192.81615)"
             id="g4579" />
          <g
             style="fill:#231f20;fill-opacity:1"
             transform="matrix(0.35277777,0,0,-0.35277777,-21.952615,200.08577)"
             id="g4583">
            <g
               style="fill:#231f20;fill-opacity:1"
               clip-path="url(#clipPath4589)"
               id="g4585">
              <g
                 style="fill:#231f20;fill-opacity:1"
                 transform="translate(255.253,20.6068)"
                 id="g4591" />
              <g
                 style="fill:#231f20;fill-opacity:1"
                 transform="translate(258.1324,21.9955)"
                 id="g4595" />
              <g
                 style="fill:#231f20;fill-opacity:1"
                 transform="translate(262.3276,23.0738)"
                 id="g4599" />
            </g>
          </g>
          <g
             style="fill:#231f20;fill-opacity:1"
             transform="matrix(0.35277777,0,0,-0.35277777,71.426885,192.81615)"
             id="g4603" />
          <g
             style="fill:#231f20;fill-opacity:1"
             transform="matrix(0.35277777,0,0,-0.35277777,72.647285,192.81615)"
             id="g4607" />
          <g
             style="fill:#231f20;fill-opacity:1"
             transform="matrix(0.35277777,0,0,-0.35277777,-21.952615,200.08577)"
             id="g4611">
            <g
               style="fill:#231f20;fill-opacity:1"
               clip-path="url(#clipPath4617)"
               id="g4613">
              <g
                 style="fill:#231f20;fill-opacity:1"
                 transform="translate(270.6048,21.9955)"
                 id="g4619" />
              <g
                 style="fill:#231f20;fill-opacity:1"
                 transform="translate(273.3481,20.6068)"
                 id="g4623" />
            </g>
          </g>
          <g
             style="fill:#231f20;fill-opacity:1"
             transform="matrix(0.35277777,0,0,-0.35277777,75.421845,192.81615)"
             id="g4627" />
          <g
             style="fill:#231f20;fill-opacity:1"
             transform="matrix(0.35277777,0,0,-0.35277777,76.949555,191.9541)"
             id="g4631" />
          <g
             style="fill:#231f20;fill-opacity:1"
             transform="matrix(0.35277777,0,0,-0.35277777,-21.952615,200.08577)"
             id="g4635">
            <g
               style="fill:#231f20;fill-opacity:1"
               clip-path="url(#clipPath4641)"
               id="g4637">
              <g
                 style="fill:#231f20;fill-opacity:1"
                 transform="translate(284.2477,22.5477)"
                 id="g4643" />
            </g>
          </g>
          <g
             style="fill:#231f20;fill-opacity:1"
             transform="matrix(0.35277777,0,0,-0.35277777,-21.952615,200.08577)"
             id="g4649">
            <g
               style="fill:#231f20;fill-opacity:1"
               clip-path="url(#clipPath4655)"
               id="g4651">
              <g
                 style="fill:#231f20;fill-opacity:1"
                 transform="translate(285.9558,21.9955)"
                 id="g4657" />
            </g>
          </g>
          <g
             style="fill:#231f20;fill-opacity:1"
             transform="matrix(0.35277777,0,0,-0.35277777,79.892675,192.81615)"
             id="g4661" />
          <g
             style="fill:#231f20;fill-opacity:1"
             transform="matrix(0.35277777,0,0,-0.35277777,81.489165,192.81615)"
             id="g4665" />
          <g
             style="fill:#231f20;fill-opacity:1"
             transform="matrix(0.35277777,0,0,-0.35277777,82.054955,192.81615)"
             id="g4669" />
          <g
             style="fill:#231f20;fill-opacity:1"
             transform="matrix(0.35277777,0,0,-0.35277777,-21.952615,200.08577)"
             id="g4673">
            <g
               style="fill:#231f20;fill-opacity:1"
               clip-path="url(#clipPath4679)"
               id="g4675">
              <g
                 style="fill:#231f20;fill-opacity:1"
                 transform="translate(299.5253,22.5477)"
                 id="g4681" />
            </g>
          </g>
          <g
             style="fill:#231f20;fill-opacity:1"
             transform="matrix(0.35277777,0,0,-0.35277777,83.883395,192.81615)"
             id="g4685" />
          <g
             style="fill:#231f20;fill-opacity:1"
             transform="matrix(0.35277777,0,0,-0.35277777,-21.952615,200.08577)"
             id="g4691">
            <g
               style="fill:#231f20;fill-opacity:1"
               clip-path="url(#clipPath4697)"
               id="g4693">
              <g
                 style="fill:#231f20;fill-opacity:1"
                 transform="translate(306.1518,22.5477)"
                 id="g4699" />
            </g>
          </g>
          <g
             style="fill:#231f20;fill-opacity:1"
             transform="matrix(0.35277777,0,0,-0.35277777,86.557665,191.9541)"
             id="g4703" />
          <g
             style="fill:#231f20;fill-opacity:1"
             transform="matrix(0.35277777,0,0,-0.35277777,79.222885,191.659)"
             id="g5013" />
          <g
             style="fill:#231f20;fill-opacity:1"
             transform="matrix(0.35277777,0,0,-0.35277777,82.346135,191.659)"
             id="g5017">
            <path
               d="M 25.623371,18.512897 c 0,-1.391918 -0.326595,-2.271587 -1.00117,-2.661363 -0.431573,-0.244947 -1.371506,-0.36742 -2.844102,-0.36742 h -1.064351 v 6.11686 l 1.042967,0.02138 c 1.452183,0.02041 2.413501,-0.143858 2.884926,-0.430601 0.655135,-0.408244 0.98173,-1.308325 0.98173,-2.67886 M 20.713748,9.4654947 v 3.7071793 h 2.47571 c 2.126758,0 3.64115,0.634722 4.541231,1.923608 0.593898,0.859257 0.901054,1.982901 0.901054,3.354407 0,1.76031 -0.470453,3.110432 -1.391919,4.07175 -0.920493,0.961318 -2.209379,1.431771 -3.866656,1.431771 H 17.889087 V 9.4654947 Z M 8.894296,15.320129 c -0.5316895,0 -0.9204936,0.08262 -1.1664121,0.226478 -0.2245344,0.141914 -0.3479797,0.449069 -0.3479797,0.89911 0,0.470453 0.18371,0.798992 0.573486,0.96229 0.2449466,0.103033 0.6347226,0.163297 1.145028,0.163297 h 3.3544068 v -2.251175 z m 0.9603461,6.404575 c 1.0031149,0 1.6786619,-0.142886 2.0470529,-0.429629 0.36742,-0.286743 0.55113,-0.818432 0.55113,-1.574656 H 8.6892019 c -1.3705343,0 -2.393089,-0.205094 -3.068636,-0.614311 -0.8184326,-0.512249 -1.2480611,-1.432743 -1.2480611,-2.74204 0,-0.982702 0.3071552,-1.759339 0.9000814,-2.331853 0.5938982,-0.572514 1.4113588,-0.859257 2.4552977,-0.859257 h 7.6322241 v 6.751583 c 0,2.67886 -1.47454,4.029954 -4.441115,4.029954 H 5.0879043 V 21.724704 Z M 0.00119208,15.484017 c -1.43274298,0 -2.41350118,0.327567 -2.96560298,0.982702 -0.3693638,0.450041 -0.5530738,1.146 -0.5530738,2.066494 0,1.288885 0.3479797,2.148142 1.0235267,2.598183 0.4704529,0.307155 1.3092977,0.470453 2.49515008,0.470453 H 2.9891513 v 2.352264 h -3.82680397 c -2.22979133,0 -3.80444773,-0.63375 -4.72591333,-1.881811 -0.6337506,-0.878698 -0.961318,-2.067466 -0.961318,-3.560474 0,-1.657277 0.4908651,-2.965603 1.4521831,-3.90748 0.9622901,-0.961318 2.3726768,-1.431771 4.23504823,-1.431771 H 2.9891513 v 2.31144 z M -14.867151,15.320129 c -0.53169,0 -0.920494,0.08262 -1.16544,0.226478 -0.224535,0.141914 -0.347008,0.449069 -0.347008,0.89911 0,0.470453 0.181766,0.798992 0.571542,0.96229 0.245919,0.103033 0.634723,0.163297 1.146,0.163297 h 3.356351 v -2.251175 z m 0.96229,6.404575 c 1.002142,0 1.677689,-0.142886 2.045109,-0.429629 0.368392,-0.286743 0.554046,-0.818432 0.554046,-1.574656 h -3.765567 c -1.370535,0 -2.393089,-0.205094 -3.067664,-0.614311 -0.820377,-0.512249 -1.249033,-1.432743 -1.249033,-2.74204 0,-0.982702 0.306183,-1.759339 0.900081,-2.331853 0.593898,-0.572514 1.412331,-0.859257 2.455298,-0.859257 h 7.6322233 v 6.751583 c 0,2.67886 -1.4745394,4.029954 -4.4401423,4.029954 h -5.830117 v -2.229791 z m -14.394811,-8.552138 v 8.388447 h 2.291028 c 0.819405,0 1.351094,-0.122473 1.576601,-0.388804 0.18371,-0.225506 0.285771,-0.737755 0.285771,-1.534804 v -6.464839 h 2.884926 v 6.832259 c 0,1.433715 -0.34798,2.45627 -1.063379,3.049196 -0.7154,0.593898 -1.8614,0.900081 -3.45744,0.900081 h -5.340224 V 13.172566 Z"
               style="fill:#231f20;fill-opacity:1;fill-rule:nonzero;stroke:none"
               id="path5019"
               inkscape:connector-curvature="0" />
          </g>
        </g>
      </g>
    </g>
  </g>
</svg>
